<svg xmlns="http://www.w3.org/2000/svg" viewBox="0 0 109.04 105.27"><path d="M109 19.34c0 9.7-6 16.26-13.54 20-4.46 2.2-12.88 4.92-21.18 7.5 11.17 4.68 15.63 13.89 15.63 24.23 0 17.31-16 34.2-43.63 34.2C21.57 105.27 0 91.66 0 69.67c0-20.73 19.13-28.62 26.39-30.51C16.82 35 12 27.78 12 20.73c0-9.28 8.23-17.87 24.15-17.87C43.42 2.86 48 4.75 51 7.19c3.7 3 5.31 6.84 5.31 9.84 0 4.75-4.05 7.61-8 7.61s-7.47-2.58-7.47-7.19c0-4.12 3.14-7.4 7.61-7.82-.84-2.44-5-4.6-10.89-4.6C27.85 5 21 11 21 22.06a21.06 21.06 0 007.26 16.27 63 63 0 018.87-.84c3.42 0 5.72 1.11 5.72 3.28 0 1.74-1.6 2.72-4 2.72-3.63 0-8.16-2.16-10.47-3.14-11 3.28-18.57 10.12-18.57 23.46 0 19.68 16.9 30.85 38.33 30.85 20.17 0 37.56-9.84 37.56-26.18 0-5.09-1.75-15.63-14.39-20.73-6.49 2-12.63 4-16.47 5.44-7.09 2.73-12.54 6.29-12.54 12.43 0 7.47 7.68 11.45 13.13 11.45 2.58 0 8-1 8.58-3.14-3-.56-6.7-2.45-6.7-7.26 0-4.61 3.42-7.47 7.82-7.47 4.61 0 7.61 3.14 7.61 7.75 0 8.16-9.42 12.28-17 12.28-8.13 0-17.74-4.88-17.74-16.75 0-9.84 6.77-16.41 19.75-20.87 8.59-2.87 24.3-6.43 34.91-11.24 9.56-4.47 12.28-8.87 12.28-13.76 0-8.16-7.75-14.45-16.61-14.45-2.31 0-3.84.42-4.26 1.26a7.67 7.67 0 014 6.63c0 4-3.7 7-8 7-3.7 0-7.54-2.3-7.54-7.12C72.46 2.44 81.33 0 88.17 0 99.9 0 109 7.19 109 19.34z" fill="#284135" opacity=".1"/></svg>