<?xml version="1.0" encoding="utf-8"?>
<!-- Generator: Adobe Illustrator 24.1.2, SVG Export Plug-In . SVG Version: 6.00 Build 0)  -->
<svg version="1.1" id="Calque_1" xmlns="http://www.w3.org/2000/svg" xmlns:xlink="http://www.w3.org/1999/xlink" x="0px" y="0px"
	 viewBox="0 0 18.5 26" style="enable-background:new 0 0 18.5 26;" xml:space="preserve">
<style type="text/css">
	.st0{enable-background:new    ;}
	.st1{fill:#284135;}
	.st2{opacity:0.4;fill:none;stroke:#284135;stroke-width:0.5;stroke-miterlimit:10;enable-background:new    ;}
</style>
<g class="st0">
	<path class="st1" d="M7.9,8.9v2H2.4V4.2l5.3,0V6c-0.7-1.4-2-1.7-4-1.7v3.1c1.1,0,2.5-0.1,3.3-0.6v1.1C6.3,7.5,4.9,7.4,3.8,7.4v3.4
		C5.9,10.8,7.3,10.3,7.9,8.9z"/>
</g>
<g class="st0">
	<path class="st1" d="M11,14.4l5.3,0v1.7c-0.7-1.4-2-1.7-4-1.7v3.1c1.1,0,2.5-0.1,3.3-0.6v1.1c-0.9-0.4-2.3-0.5-3.3-0.5V21H11V14.4z
		"/>
</g>
<path class="st2" d="M4.7,17.3L13,8.9"/>
</svg>
